<svg id="Blue_Rabbit_Consulting_LLC" data-name="Blue Rabbit Consulting LLC" xmlns="http://www.w3.org/2000/svg" xmlns:xlink="http://www.w3.org/1999/xlink" viewBox="0 0 576 338.31"><defs><style>.cls-1{fill:#005ead;}.cls-2{fill:url(#Blue_Rabbit_DNA_Gradient);}</style><linearGradient id="Blue_Rabbit_DNA_Gradient" x1="139.19" y1="81.78" x2="553.72" y2="81.78" gradientUnits="userSpaceOnUse"><stop offset="0" stop-color="#fff" stop-opacity="0"/><stop offset="0.01" stop-color="#f5f9fc" stop-opacity="0.04"/><stop offset="0.12" stop-color="#b5d0e7" stop-opacity="0.29"/><stop offset="0.24" stop-color="#7dadd5" stop-opacity="0.51"/><stop offset="0.35" stop-color="#5090c7" stop-opacity="0.69"/><stop offset="0.47" stop-color="#2c7abb" stop-opacity="0.83"/><stop offset="0.6" stop-color="#136ab3" stop-opacity="0.92"/><stop offset="0.74" stop-color="#0561af" stop-opacity="0.98"/><stop offset="0.92" stop-color="#005ead"/></linearGradient></defs><title>Blue Rabbit Consulting LLC Logo</title><path class="cls-1" d="M67.87,195.41a15,15,0,0,1,2.49,1.3C75.58,199.85,79,204.55,79,211V223.5c0,6.4-3.4,11.11-8.62,14.24-4.71,2.88-11,4.32-17.25,4.32H22V150.59h31.1a30.29,30.29,0,0,1,15.16,3.79c4.7,2.74,7.71,7.05,7.84,12.8v15.16C76,188.09,73,192.4,68.27,195.15Zm-39.46-3H53c4.05,0,8.49-.65,12-2.87a8.4,8.4,0,0,0,4.57-7.45v-14.9A8.24,8.24,0,0,0,65,160a23.58,23.58,0,0,0-11.89-2.88H28.41Zm24.7,6.54H28.41v36.58h24.7c5.09,0,10.19-1.17,13.85-3.39,3.4-2,5.62-4.84,5.62-8.63V211c0-3.79-2.22-6.67-5.62-8.63-3.66-2.35-8.62-3.39-13.72-3.39Z"/><path class="cls-1" d="M105.38,242c-10.72.65-16.07-2.74-16.07-14.37v-77h6.53v77.15c0,6.79,2.74,8.36,9.54,8.36Z"/><path class="cls-1" d="M119,177.9v45.73c0,7.84,9,12,17.9,12s17.9-4.18,17.9-12.93V177.9h6.53v64.16h-6.53v-6.93c-4.83,5.36-11.63,6.8-17.77,6.93-12.15,0-24.57-5.62-24.57-18.43V177.9Z"/><path class="cls-1" d="M178,223.28a9.23,9.23,0,0,0,1.57,5.58c2.22,3.06,6.27,5.18,10.85,6a26.74,26.74,0,0,0,10.32,0c4.83-.66,9.28-2.66,12.15-6.78l5.62,3.46c-3.79,6.25-10.19,8.9-16.86,10a32.9,32.9,0,0,1-11.37.13c-6.66-1.06-12.67-4.12-16.07-8.77a17.18,17.18,0,0,1-2.87-10.1V193.24c0-8.77,6.53-14.22,15-16.61a35.21,35.21,0,0,1,18.94,0c17,5.18,19.86,28.17,4,36.68-9.14,5.05-22.6,3.19-31.36,3.19Zm0-12.63c5.62-.26,19.47,1.2,28.23-3.05,11.1-5.32,9-21.27-2.62-24.59a30.8,30.8,0,0,0-15.55,0c-5.62,1.59-10.06,5.05-10.06,10.23Z"/><path class="cls-1" d="M269.5,207v35h-6.4V150.59h24.57c3.13,0,24.3.26,24.3,17.51v21.82c0,7.06-5.36,13.07-12.41,14.5C306.35,206,312,211.35,312,218.67v23.39h-6.53V218.67c0-8.89-11.63-11.63-18.3-11.63Zm35.94-38.94c0-8.36-11.11-11.76-17.77-11.76H269.5v44.82h17.64c7.06,0,18.3-2.22,18.3-11.24Z"/><path class="cls-1" d="M365.33,235.13c-3.57,4.44-11.46,6.93-17.87,6.93-31.17,0-28.29-29.32-16.07-37.3,8.1-5.31,21-6.07,34-3.67v-6A8.15,8.15,0,0,0,363.8,190c-2.22-3-6.28-4.94-11-5.82a31.35,31.35,0,0,0-10.32,0c-4.71.76-9.28,2.65-12,6.57l-5.62-3.41c7.71-12,35.67-12.65,44.29-1.14a15.48,15.48,0,0,1,2.75,9.49v46.41h-6.57Zm0-27.68c-9.67-2.41-22.35-3.2-29.8,1.86-9.14,6.2-8.36,22,4.18,25.41a30.09,30.09,0,0,0,7.71.89c6.8,0,17.91-3.6,17.91-12.87Z"/><path class="cls-1" d="M389.36,150.59v34.49c10.72-12.51,42.34-7.87,42.34,11.35v28.51c0,8.51-6.54,13.93-15,16.12-9.67,2.58-22.61.13-27.83-7.22v8.22H382.7V150.59Zm0,71.51c0,9.8,9.67,13.67,17.9,13.67a29.84,29.84,0,0,0,7.71-.9c5.62-1.55,10.06-4.9,10.06-9.93V196.17c0-16.25-35.67-15-35.67-.9Z"/><path class="cls-1" d="M449.16,150.59v34.49c10.71-12.51,42.34-7.87,42.34,11.35v28.51c0,8.51-6.54,13.93-15,16.12-9.67,2.58-22.61.13-27.83-7.22v8.22h-6.15V150.59Zm0,71.51c0,9.8,9.67,13.67,17.9,13.67a29.84,29.84,0,0,0,7.71-.9c5.62-1.55,10.06-4.9,10.06-9.93V196.17c0-16.25-35.67-15-35.67-.9Z"/><rect class="cls-1" x="502.29" y="150.59" width="6.66" height="11.37"/><rect class="cls-1" x="502.29" y="178.03" width="6.66" height="64.03"/><path class="cls-1" d="M537.53,150.59v27.52h16.72V184c-5.22,0-11.5,0-16.72.13V223.7c0,11,8.1,12,16.72,12.28v6c-11.89.66-23.26-3.65-23.26-18.16V184H519.75v-5.88H531V150.59Z"/><path class="cls-1" d="M58.59,306.67c0,5.77-4.15,9.36-9.61,10.93a38.42,38.42,0,0,1-17,.09c-5.63-1.49-10-5.16-10.13-10.93V268.39C22,262,27.25,258.25,33.57,257c4.76-.87,11.69-.78,16.19.7,5.11,1.75,8.83,5.24,8.83,10.66H54.26c0-3.23-2.51-5.42-5.8-6.55-4-1.31-10-1.31-14.11-.53-4.42.88-8.14,3.24-8.14,7.08v38.37c0,3.41,3,5.68,6.93,6.73a33,33,0,0,0,14.63-.09c3.72-1,6.49-3.32,6.49-6.64Z"/><path class="cls-1" d="M554.25,306.67c0,5.77-4.15,9.36-9.61,10.93a38.42,38.42,0,0,1-17,.09c-5.63-1.49-10-5.16-10.13-10.93V268.39c.09-6.38,5.37-10.14,11.69-11.36,4.76-.87,11.69-.78,16.19.7,5.11,1.75,8.83,5.24,8.83,10.66h-4.33c0-3.23-2.51-5.42-5.8-6.55-4-1.31-10-1.31-14.11-.53-4.42.88-8.14,3.24-8.14,7.08v38.37c0,3.41,3,5.68,6.93,6.73a33,33,0,0,0,14.63-.09c3.72-1,6.49-3.32,6.49-6.64Z"/><path class="cls-1" d="M66.22,268.19c0-15.45,36.43-15.45,36.43,0v38.49c0,15.71-36.43,15.71-36.43,0Zm32,38.06.09-38.06c0-10.19-27.79-10.19-27.79,0l.09,38.06a6.26,6.26,0,0,0,.25,2.24C73.47,316,95.4,316,98,308.49A6.26,6.26,0,0,0,98.24,306.25Z"/><path class="cls-1" d="M114.59,318.46h-4.31V256.6h4.66l27.62,53.09V256.6h4.31v61.86H142.3l-27.71-53.29Z"/><path class="cls-1" d="M329.31,318.46H325V256.6h4.67l27.61,53.09V256.6h4.32v61.86H357l-27.71-53.29Z"/><path class="cls-1" d="M183.77,267.77c.08-8.6-16.23-8.94-21.84-3.7-3.62,3.44-4.4,11-1,15,2.5,3,7.16,4.21,11.31,5.24,10.18,2.58,18.29,7,18.21,18.65a15.26,15.26,0,0,1-5.61,11.61c-5.53,4.55-15,4.64-21.66,2.49-5-1.72-8.81-5.67-8.72-11l4.23.08c.17,3.61,3.19,6.54,6.47,7.48,5.61,1.55,12.08,1.64,16.92-2.32a10.84,10.84,0,0,0,4.05-8.34c.09-9.19-7.85-13-15-14.78-5.18-1.29-10.1-2.83-13.12-6-5.27-5.68-4.4-16.25.95-21.23,7.76-7.31,29.17-5.76,29.08,6.87Z"/><path class="cls-1" d="M216.77,314.08c4,0,7.95-.44,10.28-1.93a6.51,6.51,0,0,0,3.36-5.7V256.6h4.32v49.85a10.68,10.68,0,0,1-5.44,9.29c-2.94,1.84-7.68,2.81-12.43,2.72H216c-4.75.09-9.5-.88-12.43-2.72a10.68,10.68,0,0,1-5.44-9.29V256.6h4.32v49.85a6.22,6.22,0,0,0,3.36,5.52c2.16,1.41,5.87,2.11,9.67,2.11Z"/><path class="cls-1" d="M266.21,256.6h37.2v3.89H287l-.18,58h-4.4l.18-58h-16.4Z"/><path class="cls-1" d="M316.36,256.6v61.86H312V256.6Z"/><path class="cls-1" d="M406.82,306.79c0,5.57-4.23,9.09-9.58,10.63a36.51,36.51,0,0,1-16.92.09c-5.61-1.46-10-5-10.09-10.72v-38.5c.08-6.26,5.35-9.94,11.65-11.15,4.74-.85,11.65-.77,16.14.78,5.09,1.63,8.8,5.14,8.8,10.46l-4.31-.09c0-3.09-2.51-5.23-5.79-6.34-4-1.38-9.92-1.38-14.07-.6-4.4.85-8.11,3.17-8.11,7v38.41c0,3.43,3,5.66,6.91,6.6a32.19,32.19,0,0,0,14.58-.08c3.71-1,6.48-3.18,6.48-6.52V291.87H390.6v-3.94h16.22Z"/><path class="cls-1" d="M473.52,318.46H445.37a2.19,2.19,0,0,1-2.2-2.18V256.6h4.4v57.49h25.95Z"/><path class="cls-1" d="M511.18,318.46H483a2.19,2.19,0,0,1-2.2-2.18V256.6h4.4v57.49h26Z"/><path class="cls-1" d="M271.86,318.46H244.5a2.16,2.16,0,0,1-2.14-2.18V256.6h4.27v57.49h25.23Z"/><path class="cls-2" d="M537,80.69c.29-1,1.73-1.3,2.51-1.3s2.23.34,2.52,1.3h.09V38.2a73.29,73.29,0,0,1,11.56-.65V31.77a74.41,74.41,0,0,0-35.6,7.81c-14,7.1-25.21,18.77-33.52,34.81C476.29,58.3,465,46.09,451.08,38.1a76.07,76.07,0,0,0-35.57-10h0a70.29,70.29,0,0,0-35.57,8.46C366,44.14,354.75,56.63,346.44,73.77,338.14,56.58,326.9,43.54,313,35A72.2,72.2,0,0,0,277.4,24.36h0a66.77,66.77,0,0,0-35.57,9.09c-14,8.17-25.2,21.54-33.5,39.85C200,54.93,188.74,41,174.79,32a68.74,68.74,0,0,0-35.6-11.3v7.06a61.78,61.78,0,0,1,10.72,1.21V79.38a2.61,2.61,0,1,0,5.22,0V30.24A64,64,0,0,1,177.37,42V80.83L180,78.18l2.61,2.66V46.68c8.16,8,15.93,19.25,22.21,35-3.58,8.88-10.58,23.07-22.21,34.75V83.91L180,81.26l-2.61,2.65v37.26a62.92,62.92,0,0,1-22.24,12.15V83.46H155c-.29,1.16-1.74,1.57-2.52,1.57s-2.23-.41-2.52-1.56h-.09v51.17a60.94,60.94,0,0,1-10.72,1.2v7.06a68.33,68.33,0,0,0,35.61-11.44C188.74,122.32,200,108.38,208.3,90c20.78,45.78,54.87,49.51,69.07,49.21h0A71.74,71.74,0,0,0,313,128.4c13.92-8.58,25.15-21.65,33.46-38.86,20.79,42.86,54.85,46.25,69,46h0a75.47,75.47,0,0,0,35.58-10.15c14-8,25.2-20.3,33.51-36.4,20.8,40.1,54.93,43.15,69.12,42.85V126a73,73,0,0,1-11.56-.65V84.07a2.64,2.64,0,0,0-5.22,0v40.36a62.1,62.1,0,0,1-22.24-9.78V81.92l-2.61,2.26-2.61-2.26v28.69c-11.12-9.52-17.88-21.39-21.36-28.95,6.06-13.23,13.51-22.57,21.36-29.14V79.29l2.61,2.27,2.61-2.26V48.57a63.5,63.5,0,0,1,22.24-9.45V80.69ZM320.76,114.26V83.78l-2.6-2.49-2.61,2.49v35a64.32,64.32,0,0,1-22.25,11.43V83.36h-.09c-.29,1.08-1.74,1.47-2.52,1.47s-2.22-.38-2.51-1.47h-.09v48.06a65.08,65.08,0,0,1-10.71,1.14,63.19,63.19,0,0,1-11.54-.78V84.41a2.61,2.61,0,0,0-5.22,0V130.7a58.83,58.83,0,0,1-22.24-11.27V81.94l-2.61,2.59-2.61-2.59v32.84C222,103.86,215.28,90.28,211.8,81.64c6.06-15.12,13.51-25.81,21.36-33.35V78.93l2.61,2.59,2.61-2.58V43.76a59.69,59.69,0,0,1,22.24-10.9V80.53h.1c.29-1.1,1.73-1.49,2.51-1.49s2.23.39,2.52,1.49h.09V31.79A63,63,0,0,1,277.38,31a64.27,64.27,0,0,1,10.71,1.15V79.53a2.61,2.61,0,0,0,5.21,0V33.38a65.87,65.87,0,0,1,22.25,11.11v36.4l2.61-2.49,2.6,2.49v-32c8.17,7.52,15.93,18.07,22.21,32.8C339.4,90,332.4,103.28,320.76,114.26Zm138.12-2.14V83.65l-2.61-2.33-2.61,2.33v32.66A66.4,66.4,0,0,1,431.42,127V83.26h-.09c-.29,1-1.74,1.37-2.52,1.38s-2.22-.36-2.52-1.38h-.09v45a69.74,69.74,0,0,1-10.7,1.07,67.13,67.13,0,0,1-11.54-.71V84.24a2.62,2.62,0,0,0-5.22,0v43.32A60,60,0,0,1,376.5,117V81.93l-2.61,2.42-2.61-2.42v30.76c-11.13-10.22-17.88-22.94-21.37-31,6.06-14.18,13.51-24.19,21.37-31.24v28.7l2.61,2.43,2.61-2.42v-33A61.36,61.36,0,0,1,398.74,36V80.61h.09c.29-1,1.74-1.4,2.52-1.39s2.23.36,2.52,1.39H404V35a67.81,67.81,0,0,1,22.24.38v44.3a2.62,2.62,0,0,0,5.22,0V36.53a67.9,67.9,0,0,1,22.24,10.4V81l2.61-2.33L458.88,81V51c8.17,7,15.93,16.9,22.21,30.65C477.51,89.43,470.51,101.85,458.88,112.12Z"/><path class="cls-1" d="M76.65,112.55c0-19.52,5.53-34.72,21-48.75,1.13-.95-.55-1.58-2.08-.64-16.69,15.14-20.29,30.33-21,50.36a115.67,115.67,0,0,1-11.11-7L51,96.07a14.76,14.76,0,0,0-14.63-1.78l-4.31,2.1a9.53,9.53,0,0,1-9.36-1.08L22,94.54l1.5-15.89a13.87,13.87,0,0,1,5.11-10.06l11-8.88,1.91-1.8L65.36,19.72a8,8,0,0,1,4.68,7L45.4,54.28,75.8,25.5c1.1-1.05,2.19-.69,2.42.8,0,0,5.35,24.32-14,32.74L50.07,66l4.46,5.56a7.25,7.25,0,0,0,7,2.28l1-.27a13,13,0,0,0,6.55-4.88S84.76,40.91,106.21,35.1a49.22,49.22,0,0,1,6.17-1.48c13.6-2.17,28.49,3.89,37.07,13.9l16.66,18.56a5.87,5.87,0,0,1-6,5.9l-4.71-.06c-2.29,15.16-16.21,29-37.42,28.05l-32.9,25.26a24.88,24.88,0,0,1-10,4.16l-22.29,3.09.28-2.23a9,9,0,0,1,6.08-7l14.35-3.93a4.38,4.38,0,0,0,3.07-4ZM132,136.46s-23.78-5.53-40.22-13.66l10.56-8.41c4.22,6.76,23.06,12.91,23.06,12.91,2.94.9,6.58,3.1,6.59,6.19v3Z"/></svg>